<?xml version="1.0" encoding="utf-8" standalone="yes"?>
<!DOCTYPE svg PUBLIC "-//W3C//DTD SVG 1.1//EN" "http://www.w3.org/Graphics/SVG/1.1/DTD/svg11.dtd">
<svg xmlns:xlink="http://www.w3.org/1999/xlink" width="203px" height="186px" viewBox="0 0 203 186" class="barcode-canvas" version="1.1" style="shape-rendering:crispEdges;" xmlns="http://www.w3.org/2000/svg">
  <g text-rendering="geometricPrecision" fill="#000000">
    <rect x="0" y="0" width="203" height="186" fill="#ffffff" />
    <rect x="7" y="7" width="2" height="173" />
    <rect x="11" y="7" width="2" height="173" />
    <rect x="17" y="7" width="4" height="173" />
    <rect x="25" y="7" width="2" height="173" />
    <rect x="31" y="7" width="2" height="173" />
    <rect x="37" y="7" width="4" height="173" />
    <rect x="43" y="7" width="8" height="173" />
    <rect x="53" y="7" width="2" height="173" />
    <rect x="57" y="7" width="2" height="173" />
    <rect x="65" y="7" width="4" height="173" />
    <rect x="71" y="7" width="4" height="173" />
    <rect x="81" y="7" width="2" height="173" />
    <rect x="85" y="7" width="2" height="173" />
    <rect x="89" y="7" width="8" height="173" />
    <rect x="99" y="7" width="2" height="173" />
    <rect x="103" y="7" width="2" height="173" />
    <rect x="107" y="7" width="2" height="173" />
    <rect x="115" y="7" width="2" height="173" />
    <rect x="121" y="7" width="2" height="173" />
    <rect x="127" y="7" width="2" height="173" />
    <rect x="135" y="7" width="6" height="173" />
    <rect x="143" y="7" width="2" height="173" />
    <rect x="149" y="7" width="6" height="173" />
    <rect x="159" y="7" width="2" height="173" />
    <rect x="163" y="7" width="6" height="173" />
    <rect x="173" y="7" width="2" height="173" />
    <rect x="177" y="7" width="2" height="173" />
    <rect x="183" y="7" width="6" height="173" />
    <rect x="191" y="7" width="2" height="173" />
    <rect x="195" y="7" width="2" height="173" />
  </g>
</svg>